<?xml version="1.0" standalone="no"?>
<!DOCTYPE svg PUBLIC "-//W3C//DTD SVG 20010904//EN"
 "http://www.w3.org/TR/2001/REC-SVG-20010904/DTD/svg10.dtd">
<svg version="1.0" xmlns="http://www.w3.org/2000/svg"
 width="800.000000pt" height="800.000000pt" viewBox="0 0 800.000000 800.000000"
 preserveAspectRatio="xMidYMid meet">
<metadata>
Created by potrace 1.11, written by Peter Selinger 2001-2013
</metadata>
<g transform="translate(0.000000,800.000000) scale(0.100000,-0.100000)"
fill="#000000" stroke="none">
<path d="M3937 7474 c-3 -4 -51 -10 -137 -18 -25 -3 -65 -8 -90 -11 -120 -16
-160 -21 -245 -30 -38 -4 -79 -9 -90 -11 -11 -2 -40 -7 -65 -9 -25 -3 -61 -8
-80 -10 -19 -3 -56 -7 -82 -10 -95 -10 -126 -15 -154 -26 -16 -7 -33 -13 -39
-15 -13 -3 -206 -72 -225 -81 -8 -3 -21 -7 -27 -9 -7 -1 -50 -17 -95 -34 -46
-17 -94 -34 -107 -36 -14 -3 -29 -8 -35 -12 -6 -3 -15 -7 -21 -8 -5 -1 -33
-11 -61 -22 -29 -12 -55 -18 -58 -15 -3 4 -6 1 -6 -6 0 -7 -6 -11 -14 -8 -8 3
-20 -1 -27 -9 -6 -8 -14 -13 -16 -10 -3 2 -19 -2 -38 -9 -18 -8 -35 -11 -39
-8 -3 4 -6 1 -6 -5 0 -7 -3 -11 -7 -10 -5 0 -15 -1 -23 -5 -32 -12 -95 -30
-99 -28 -2 2 -7 -1 -10 -6 -6 -9 -78 -33 -95 -32 -5 0 -12 -3 -15 -8 -3 -5
-35 -18 -71 -28 -36 -10 -67 -22 -70 -25 -4 -4 -173 -64 -210 -74 -8 -2 -28
-9 -45 -16 -16 -6 -31 -11 -32 -11 -2 0 -33 -11 -70 -25 -38 -15 -72 -27 -78
-29 -5 -1 -17 -5 -25 -8 -8 -4 -35 -13 -60 -21 -48 -16 -46 -17 -106 41 -47
45 -76 63 -105 63 -13 0 -53 0 -89 1 -36 0 -69 0 -75 0 -5 1 -35 0 -65 0 -30
0 -64 -1 -75 -1 -459 2 -413 5 -449 -35 -17 -18 -38 -43 -46 -54 -9 -11 -30
-36 -48 -55 -18 -20 -32 -40 -32 -46 0 -5 -3 -10 -7 -10 -5 0 -37 -36 -73 -80
-36 -44 -68 -80 -72 -80 -5 0 -8 -7 -8 -15 0 -8 -4 -15 -10 -15 -6 0 -10 -102
-10 -286 0 -290 2 -309 39 -344 9 -8 29 -34 45 -57 16 -24 33 -43 37 -43 5 0
9 -6 9 -14 0 -8 3 -16 8 -18 4 -1 23 -23 42 -48 19 -25 37 -47 40 -50 3 -3 17
-21 30 -40 32 -46 50 -68 77 -97 12 -13 20 -23 17 -23 -3 0 15 -24 40 -54 25
-29 46 -58 46 -65 0 -6 5 -11 10 -11 6 0 10 -8 10 -18 0 -10 3 -22 7 -26 4 -3
8 -12 9 -19 1 -7 8 -25 15 -42 7 -16 13 -33 14 -37 2 -5 4 -10 5 -13 1 -3 3
-8 4 -12 1 -5 11 -33 23 -63 28 -72 36 -94 37 -100 1 -3 7 -15 14 -27 7 -13
11 -23 8 -23 -3 0 9 -33 25 -72 16 -40 30 -74 29 -76 0 -1 7 -18 15 -38 8 -20
15 -42 15 -48 0 -7 4 -16 10 -22 5 -5 11 -18 13 -29 5 -23 14 -51 29 -81 7
-15 6 -27 -3 -43 -8 -11 -16 -21 -20 -21 -3 0 -25 -18 -50 -40 -24 -22 -65
-57 -91 -78 -42 -32 -47 -41 -43 -67 4 -28 50 -202 62 -235 5 -13 10 -32 17
-65 1 -5 5 -15 8 -21 4 -6 9 -21 12 -35 11 -51 15 -68 35 -140 47 -163 57
-200 78 -276 2 -7 5 -19 6 -25 2 -7 7 -26 11 -43 4 -16 10 -37 14 -45 3 -8 7
-19 7 -25 1 -5 5 -18 9 -27 4 -9 5 -22 1 -28 -3 -5 -2 -10 3 -10 5 0 12 -12
15 -27 2 -16 12 -55 22 -88 9 -33 18 -64 19 -70 14 -53 25 -72 72 -119 30 -30
54 -51 54 -48 0 4 9 -6 20 -23 11 -16 20 -28 20 -25 0 3 56 -48 125 -115 68
-66 187 -181 265 -255 77 -74 200 -192 272 -263 72 -70 135 -127 140 -127 4 0
8 -7 8 -17 0 -9 2 -14 5 -12 2 3 56 -45 119 -105 279 -270 517 -500 593 -572
77 -74 124 -120 148 -144 59 -60 261 -250 267 -250 5 0 8 -7 8 -15 0 -8 4 -15
8 -15 5 0 53 -43 108 -96 90 -87 230 -194 253 -194 5 0 11 -4 13 -8 1 -5 46
-37 98 -72 52 -35 97 -66 100 -70 3 -4 15 -10 28 -14 12 -4 22 -12 22 -17 0
-5 5 -9 11 -9 7 0 18 -8 25 -18 11 -16 43 -17 371 -20 l359 -3 120 80 c65 44
124 85 131 91 7 5 24 15 38 22 14 6 25 15 25 20 0 4 6 8 14 8 8 0 16 3 18 8 2
4 37 30 78 58 41 28 140 114 219 190 79 76 179 174 223 217 44 42 84 77 90 77
5 0 7 4 4 9 -4 5 -2 11 3 13 9 3 330 309 442 421 26 26 53 47 60 47 7 0 10 3
6 6 -3 3 6 17 21 31 23 21 200 191 497 478 95 91 388 373 538 518 56 53 107
102 112 107 6 6 21 21 33 33 99 92 133 130 136 149 3 13 5 23 6 23 1 0 3 7 5
15 2 8 15 58 30 110 14 52 28 102 30 110 2 8 8 27 14 43 6 15 8 27 6 27 -3 0
1 16 9 35 8 19 12 35 9 35 -3 0 0 7 7 15 7 8 10 15 7 15 -3 0 1 23 9 52 9 28
17 59 20 67 2 9 15 57 29 106 14 50 28 97 29 105 9 39 28 107 33 120 3 8 7 22
9 30 2 8 15 56 29 105 27 95 33 114 39 143 2 9 7 30 11 46 5 16 3 31 -2 35
-15 9 -110 90 -156 134 -23 20 -45 37 -50 37 -10 0 1 59 13 75 5 6 8 12 8 15
1 6 19 57 29 80 4 8 7 20 8 25 1 6 11 32 23 59 12 26 20 52 17 56 -3 5 -1 11
4 14 5 4 17 30 27 59 9 28 20 57 24 62 5 6 8 12 9 15 0 9 42 127 76 215 5 11
9 22 10 25 24 69 54 130 65 130 5 0 10 5 10 11 0 6 6 17 13 24 14 16 19 22 67
85 19 25 40 49 47 53 7 4 13 13 13 20 0 7 12 26 28 42 15 17 47 57 72 90 49
67 60 80 90 113 11 12 20 25 20 30 0 4 11 19 25 34 l25 27 0 284 c0 322 9 287
-102 408 -16 16 -28 32 -28 35 0 3 -6 11 -12 18 -7 7 -33 37 -58 66 -25 29
-51 59 -57 66 -7 7 -13 15 -13 17 0 3 -14 21 -31 40 -29 33 -36 35 -90 36 -33
0 -64 3 -69 6 -6 3 -10 3 -10 -2 0 -9 -284 -8 -306 1 -8 3 -14 2 -14 -2 0 -4
-62 -6 -137 -5 -76 2 -147 1 -158 -2 -11 -2 -36 -19 -55 -37 -19 -18 -48 -43
-63 -55 -29 -22 -29 -22 -77 -4 -27 10 -51 16 -54 13 -4 -3 -6 0 -6 6 0 7 -11
12 -23 12 -13 0 -27 3 -31 7 -3 4 -16 8 -28 10 -12 2 -26 7 -32 12 -6 5 -20
11 -31 13 -11 1 -22 5 -25 8 -5 5 -213 79 -240 85 -8 2 -32 11 -52 19 -21 9
-38 13 -38 9 0 -5 -4 -3 -8 2 -4 6 -32 18 -62 28 -30 11 -62 21 -70 25 -8 3
-17 6 -20 7 -3 1 -18 7 -33 13 -16 7 -32 12 -36 12 -4 0 -67 22 -139 49 -73
27 -132 47 -132 44 0 -3 -6 -1 -12 4 -7 6 -31 16 -53 22 -22 7 -49 16 -60 21
-25 11 -245 89 -265 95 -8 2 -15 4 -15 5 0 1 -7 3 -15 5 -8 2 -32 10 -52 19
-21 9 -38 13 -38 10 0 -4 -6 -2 -12 4 -19 14 -167 63 -208 68 -58 7 -102 12
-165 19 -33 4 -71 8 -85 11 -14 2 -47 7 -75 10 -27 3 -63 7 -80 10 -16 3 -46
7 -65 8 -65 7 -145 16 -170 20 -14 3 -52 8 -85 11 -33 4 -71 9 -85 11 -39 6
-178 12 -183 8z"/>
</g>
</svg>
